<svg width="901" height="901" xmlns="http://www.w3.org/2000/svg" xmlns:xlink="http://www.w3.org/1999/xlink" overflow="hidden"><defs><clipPath id="clip0"><rect x="189" y="-80" width="901" height="901"/></clipPath><clipPath id="clip1"><rect x="190" y="-79" width="900" height="900"/></clipPath><clipPath id="clip2"><rect x="190" y="-79" width="900" height="900"/></clipPath><clipPath id="clip3"><rect x="190" y="-79" width="900" height="900"/></clipPath></defs><g clip-path="url(#clip0)" transform="translate(-189 80)"><g clip-path="url(#clip1)"><g clip-path="url(#clip2)"><g clip-path="url(#clip3)"><path d="M716.031 141.031C788.702 163.865 846.518 219.358 872.312 291.031L843.438 273.875C834.912 267.998 823.235 270.146 817.358 278.671 811.481 287.198 813.629 298.873 822.155 304.751 822.96 305.306 823.806 305.796 824.688 306.219L890.312 345.125C893.637 347.792 897.769 349.246 902.031 349.25L902.5 349.25 904 349.25 904.75 349.25 906.25 349.25C911.054 348.002 915.167 344.9 917.688 340.625L958.75 271.531C963.228 262.195 959.29 250.995 949.953 246.517 941.632 242.526 931.644 245.183 926.406 252.781L909.062 282.312C887.389 218.985 843.799 165.488 786.156 131.469 767.554 120.521 747.772 111.715 727.188 105.219 717.298 102.138 706.784 107.657 703.703 117.547 700.622 127.437 706.142 137.951 716.031 141.031Z" fill="#2276AC" fill-rule="nonzero" fill-opacity="1"/><path d="M369.438 438.125C371.44 446.598 379.012 452.578 387.719 452.562 389.174 452.554 390.622 452.365 392.031 452 401.942 449.464 407.99 439.453 405.625 429.5 391.333 368.183 401.418 303.712 433.75 249.688 441.237 237.014 449.834 225.029 459.438 213.875L460 214.438 460 248.75C460 259.106 468.394 267.5 478.75 267.5 489.106 267.5 497.5 259.106 497.5 248.75L498.25 169.25C498.25 158.894 489.856 150.5 479.5 150.5L399.906 149.75C389.551 149.75 381.156 158.144 381.156 168.5 381.156 178.856 389.551 187.25 399.906 187.25L433.188 187.25C421.094 200.569 410.296 215.009 400.938 230.375 363.841 292.901 352.543 367.413 369.438 438.125Z" fill="#2276AC" fill-rule="nonzero" fill-opacity="1"/><path d="M810.812 550.531C753.821 604.298 674.508 627.481 597.531 612.875L597.531 612.875 627.344 596C636.327 590.822 639.412 579.342 634.234 570.359 629.057 561.376 617.577 558.291 608.594 563.469L539.688 602.562C530.682 607.675 527.526 619.12 532.638 628.125 532.644 628.136 532.651 628.146 532.656 628.156L572.125 697.25C577.303 706.259 588.803 709.365 597.812 704.188 606.822 699.01 609.928 687.509 604.75 678.5L587.969 649.25C677.633 667.297 770.473 640.617 836.875 577.719 844.678 570.911 845.485 559.066 838.677 551.263 831.87 543.461 820.025 542.653 812.222 549.462 811.832 549.802 811.455 550.159 811.094 550.531Z" fill="#2276AC" fill-rule="nonzero" fill-opacity="1"/><path d="M508.75 536.375C508.75 577.796 475.171 611.375 433.75 611.375 392.329 611.375 358.75 577.796 358.75 536.375 358.75 494.954 392.329 461.375 433.75 461.375 475.171 461.375 508.75 494.954 508.75 536.375Z" fill="#2276AC" fill-rule="nonzero" fill-opacity="1"/><path d="M963.438 472.25C963.438 513.671 929.859 547.25 888.438 547.25 847.016 547.25 813.438 513.671 813.438 472.25 813.438 430.829 847.016 397.25 888.438 397.25 929.859 397.25 963.438 430.829 963.438 472.25Z" fill="#2276AC" fill-rule="nonzero" fill-opacity="1"/><path d="M684.531 114.219C684.531 155.64 650.953 189.219 609.531 189.219 568.11 189.219 534.531 155.64 534.531 114.219 534.531 72.7974 568.11 39.2188 609.531 39.2188 650.953 39.2188 684.531 72.7974 684.531 114.219Z" fill="#2276AC" fill-rule="nonzero" fill-opacity="1"/></g></g></g></g></svg>