<svg width="752" height="786" xmlns="http://www.w3.org/2000/svg" xmlns:xlink="http://www.w3.org/1999/xlink" overflow="hidden"><defs><clipPath id="clip0"><rect x="264" y="-33" width="752" height="786"/></clipPath></defs><g clip-path="url(#clip0)" transform="translate(-264 33)"><path d="M579.706 642.326 579.706 62.6588 172.372 62.6588 172.372 642.326 78.3725 642.326 78.3725 689.326 172.372 689.326 188.031 689.326 219.372 689.326 219.372 109.659 532.706 109.659 532.706 689.326 564.039 689.326 579.706 689.326 673.706 689.326 673.706 642.326 579.706 642.326Z" fill="#2276AC" fill-rule="nonzero" fill-opacity="1" transform="matrix(1 0 0 1.04521 264 -33)"/><path d="M242.872 689.333 470.039 658 470.039 164.5 242.872 133.167ZM383.833 407.333 418.692 407.333C420.279 398.84 427.32 392.439 435.925 391.667 446.116 391.667 454.333 402.187 454.333 415.167 454.333 428.147 446.101 438.667 435.941 438.667 427.336 437.894 420.294 431.493 418.707 423L383.833 423Z" fill="#2276AC" fill-rule="nonzero" fill-opacity="1" transform="matrix(1 0 0 1.04521 264 -33)"/></g></svg>