<svg width="744" height="744" xmlns="http://www.w3.org/2000/svg" xmlns:xlink="http://www.w3.org/1999/xlink" overflow="hidden"><defs><clipPath id="clip0"><rect x="268" y="-12" width="744" height="744"/></clipPath><clipPath id="clip1"><rect x="269" y="-11" width="742" height="742"/></clipPath><clipPath id="clip2"><rect x="269" y="-11" width="742" height="742"/></clipPath><clipPath id="clip3"><rect x="269" y="-11" width="742" height="742"/></clipPath></defs><g clip-path="url(#clip0)" transform="translate(-268 12)"><g clip-path="url(#clip1)"><g clip-path="url(#clip2)"><g clip-path="url(#clip3)"><path d="M754.392 462.798C758.256 455.069 755.938 445.794 748.208 441.929 740.479 438.065 731.204 440.383 727.34 448.112L696.423 502.99 717.292 420.287C719.61 411.785 714.2 403.283 705.698 401.738 697.196 399.419 688.694 404.829 687.148 413.331L669.371 484.44 669.371 407.148C669.371 398.646 662.415 391.69 653.912 391.69 645.41 391.69 638.454 398.646 638.454 407.148L638.454 489.85 620.677 413.331C619.131 404.829 610.629 400.192 602.127 401.738 593.625 403.283 588.987 411.785 590.533 420.287L612.175 512.265C611.402 523.085 609.083 533.906 606.765 543.181 606.765 543.181 606.765 542.408 605.992 542.408 592.852 522.312 571.983 504.535 551.888 499.125 544.158 496.806 536.429 501.444 534.11 509.173 531.792 516.902 536.429 524.631 544.158 526.95 554.206 529.269 563.481 543.954 573.529 559.413 585.896 578.735 601.354 601.15 624.542 614.29L624.542 696.992 692.558 696.992 692.558 609.652C718.065 596.512 721.156 541.635 721.929 520.767L754.392 462.798Z" fill="#2276AC" fill-rule="nonzero" fill-opacity="1"/><path d="M481.552 468.981 548.796 469.754C548.796 469.754 548.796 469.754 548.796 469.754 557.298 469.754 564.254 462.798 564.254 454.296 564.254 445.794 557.298 438.837 548.796 438.837L486.19 438.065 568.119 417.196C576.621 414.877 581.258 406.375 578.94 398.646 576.621 390.144 568.119 385.506 560.39 387.825L489.281 406.375 557.298 369.275C565.027 365.41 567.346 356.135 563.481 348.406 559.617 340.677 550.342 338.358 542.612 342.223L469.958 380.869 528.7 329.083C534.883 323.673 535.656 313.625 530.246 307.442 524.835 301.258 514.787 300.485 508.604 305.896L437.496 367.729C427.448 372.367 417.4 375.458 407.352 377.004 407.352 377.004 407.352 376.231 408.125 376.231 419.719 354.59 425.129 328.31 420.492 308.215 418.946 300.485 410.444 295.848 402.715 297.394 394.985 298.94 390.348 307.442 391.894 315.171 394.212 325.219 386.483 339.904 377.981 356.135 367.16 376.231 354.794 400.192 354.021 427.244L281.367 466.662 313.829 526.177 390.348 485.212C413.535 501.444 463.002 478.256 481.552 468.981Z" fill="#2276AC" fill-rule="nonzero" fill-opacity="1"/><path d="M490.054 217.01 506.285 281.935C507.831 288.892 514.015 293.529 520.971 293.529 522.517 293.529 523.29 293.529 524.835 292.756 533.338 290.438 537.975 282.708 536.429 274.206L521.744 213.146 562.708 286.573C565.8 291.983 570.438 294.302 576.621 294.302 578.94 294.302 582.031 293.529 584.35 291.983 592.079 288.119 594.398 278.071 590.533 271.115L554.979 206.962 607.537 263.385C610.629 266.477 614.494 268.023 619.131 268.023 622.996 268.023 626.86 266.477 629.952 264.158 636.135 257.975 636.135 248.7 630.725 242.517L574.302 182.229 640 226.285C642.319 227.831 645.41 228.604 648.502 228.604 653.14 228.604 658.55 226.285 661.642 221.648 666.279 214.692 664.733 204.644 657.777 200.006L578.94 147.448C571.983 138.946 566.573 129.671 561.935 121.169 561.935 121.169 562.708 121.169 562.708 121.169 585.896 126.579 612.948 125.806 631.498 115.758 638.454 111.894 640.773 103.392 636.908 96.4354 633.044 89.4792 624.542 87.1604 617.585 91.025 609.083 95.6625 592.079 91.7979 574.302 87.9333 551.888 82.5229 525.608 76.3396 499.329 83.2958L442.906 23.0083 393.44 69.3833 452.954 132.762C440.587 159.815 475.369 202.325 490.054 217.01Z" fill="#2276AC" fill-rule="nonzero" fill-opacity="1"/><path d="M998.633 520.767 939.892 456.615C949.94 429.562 915.158 387.052 901.246 371.594L885.788 306.669C883.469 298.167 875.74 293.529 867.237 295.075 858.735 297.394 854.098 305.123 855.644 313.625L870.329 374.685 829.365 300.485C825.5 292.756 816.225 290.438 808.496 294.302 800.767 298.167 798.448 307.442 802.312 315.171L837.867 380.096 785.308 323.673C779.125 317.49 769.85 316.717 763.667 322.9 757.483 329.083 756.71 338.358 762.894 344.542L819.317 405.602 754.392 361.546C747.435 356.908 737.387 358.454 732.75 365.41 728.112 372.367 729.658 382.415 736.615 387.052L814.679 440.383C821.635 448.885 827.046 458.16 831.683 466.662 831.683 466.662 830.91 466.662 830.91 466.662 807.723 461.252 780.671 462.025 762.121 472.073 755.165 475.938 752.073 484.44 755.938 491.396 759.802 498.352 768.304 501.444 775.26 497.579 783.762 492.942 800.767 496.806 818.544 501.444 840.958 506.854 867.237 513.038 893.517 506.854L949.167 567.142 998.633 520.767Z" fill="#2276AC" fill-rule="nonzero" fill-opacity="1"/><path d="M680.965 189.958C682.51 189.958 684.056 189.958 686.375 189.185L745.117 168.317 675.554 216.237C668.598 220.875 667.052 230.923 671.69 237.879 674.781 242.517 679.419 244.835 684.056 244.835 687.148 244.835 690.24 244.062 692.558 241.744L752.846 200.006 701.833 257.975C696.423 264.158 697.196 274.206 703.379 279.617 706.471 281.935 709.562 283.481 713.427 283.481 718.065 283.481 721.929 281.935 725.021 278.071L779.898 215.465 742.798 285.027C738.933 292.756 741.252 302.031 748.981 305.896 751.3 307.442 753.619 307.442 755.938 307.442 761.348 307.442 766.758 304.35 769.85 298.94L814.679 215.465C822.408 207.735 830.91 201.552 839.413 196.142 839.413 196.142 839.413 196.915 839.413 196.915 836.321 220.875 840.185 247.927 851.779 264.931 856.417 271.887 864.919 273.433 871.875 268.796 878.831 264.158 880.377 255.656 875.74 248.7 870.329 240.198 872.648 223.194 874.967 204.644 878.058 182.229 881.15 155.177 872.648 129.671L926.752 67.8375 875.74 23.0083 818.544 88.7062C790.719 81.75 752.073 121.169 738.16 135.854L674.781 158.269C667.052 161.36 662.415 169.862 665.506 178.365 668.598 186.094 674.781 189.958 680.965 189.958Z" fill="#2276AC" fill-rule="nonzero" fill-opacity="1"/></g></g></g></g></svg>