<svg width="1870" height="2365" xmlns="http://www.w3.org/2000/svg" xmlns:xlink="http://www.w3.org/1999/xlink" overflow="hidden"><defs><clipPath id="clip0"><rect x="1265" y="55" width="1870" height="2365"/></clipPath></defs><g clip-path="url(#clip0)" transform="translate(-1265 -55)"><path d="M3132 56 1269 56 1269 298.322 1385.44 298.322 1385.44 2420 1756.99 2420 1756.99 2327.77 2644.01 2327.77 2644.01 2420 3015.56 2420 3015.56 298.322 3132 298.322ZM2130.64 1237.32 1823.8 1237.32C1931.54 997.481 1989.15 725.147 1990.91 447.38L1990.91 298.322 2130.64 298.322ZM2270.36 298.322 2410.09 298.322 2410.09 447.38C2411.85 725.147 2469.46 997.481 2577.2 1237.32L2270.36 1237.32ZM1598.91 1585.66C1645.67 1535.79 1688.48 1479.98 1726.72 1419.06L2130.64 1419.06 2130.64 2085.44 1742.48 2085.44C1718.22 1908.94 1669.58 1739.61 1598.91 1585.66ZM2270.36 1419.06 2674.28 1419.06C2712.52 1479.98 2755.33 1535.79 2802.09 1585.66 2731.43 1739.62 2682.79 1908.94 2658.52 2085.44L2270.36 2085.44Z" fill="#2276AC" fill-rule="evenodd" fill-opacity="1"/></g></svg>